<mxfile host="app.diagrams.net" modified="2021-12-27T13:29:03.086Z" agent="5.0 (Windows NT 10.0; Win64; x64) AppleWebKit/537.36 (KHTML, like Gecko) Chrome/96.0.4664.110 Safari/537.36" etag="RYaeaKlP7e4OsQo115lo" version="16.1.0" type="github">
  <diagram id="C5RBs43oDa-KdzZeNtuy" name="Page-1">
    <mxGraphModel dx="823" dy="752" grid="1" gridSize="10" guides="1" tooltips="1" connect="1" arrows="1" fold="1" page="1" pageScale="1" pageWidth="1169" pageHeight="1654" math="0" shadow="0">
      <root>
        <mxCell id="WIyWlLk6GJQsqaUBKTNV-0" />
        <mxCell id="WIyWlLk6GJQsqaUBKTNV-1" parent="WIyWlLk6GJQsqaUBKTNV-0" />
        <mxCell id="n6h9AmYjATDsL7nFFByY-74" value="" style="rounded=0;whiteSpace=wrap;html=1;" parent="WIyWlLk6GJQsqaUBKTNV-1" vertex="1">
          <mxGeometry x="140" y="50" width="660" height="530" as="geometry" />
        </mxCell>
        <mxCell id="n6h9AmYjATDsL7nFFByY-0" value="일반회원" style="shape=umlActor;verticalLabelPosition=bottom;verticalAlign=top;html=1;outlineConnect=0;" parent="WIyWlLk6GJQsqaUBKTNV-1" vertex="1">
          <mxGeometry x="30" y="330" width="30" height="60" as="geometry" />
        </mxCell>
        <mxCell id="n6h9AmYjATDsL7nFFByY-8" value="사업자회원" style="shape=umlActor;verticalLabelPosition=bottom;verticalAlign=top;html=1;outlineConnect=0;" parent="WIyWlLk6GJQsqaUBKTNV-1" vertex="1">
          <mxGeometry x="30" y="500" width="30" height="60" as="geometry" />
        </mxCell>
        <mxCell id="n6h9AmYjATDsL7nFFByY-21" value="캠핑장 검색" style="ellipse;whiteSpace=wrap;html=1;verticalAlign=middle;align=center;" parent="WIyWlLk6GJQsqaUBKTNV-1" vertex="1">
          <mxGeometry x="325" y="300" width="130" height="70" as="geometry" />
        </mxCell>
        <mxCell id="n6h9AmYjATDsL7nFFByY-27" value="검색 목록 조회" style="ellipse;whiteSpace=wrap;html=1;" parent="WIyWlLk6GJQsqaUBKTNV-1" vertex="1">
          <mxGeometry x="530" y="240" width="130" height="70" as="geometry" />
        </mxCell>
        <mxCell id="n6h9AmYjATDsL7nFFByY-28" value="고객센터 &lt;br&gt;페이지 조회" style="ellipse;whiteSpace=wrap;html=1;" parent="WIyWlLk6GJQsqaUBKTNV-1" vertex="1">
          <mxGeometry x="320" y="410" width="130" height="75" as="geometry" />
        </mxCell>
        <mxCell id="n6h9AmYjATDsL7nFFByY-34" value="캠핑장&lt;br&gt;상세 페이지 조회" style="ellipse;whiteSpace=wrap;html=1;" parent="WIyWlLk6GJQsqaUBKTNV-1" vertex="1">
          <mxGeometry x="315" y="140" width="140" height="70" as="geometry" />
        </mxCell>
        <mxCell id="n6h9AmYjATDsL7nFFByY-36" value="비회원" style="shape=umlActor;verticalLabelPosition=bottom;verticalAlign=top;html=1;outlineConnect=0;" parent="WIyWlLk6GJQsqaUBKTNV-1" vertex="1">
          <mxGeometry x="30" y="140" width="30" height="60" as="geometry" />
        </mxCell>
        <mxCell id="n6h9AmYjATDsL7nFFByY-41" value="&amp;lt;&amp;lt;include&amp;gt;&amp;gt;" style="endArrow=open;endSize=16;endFill=0;html=1;rounded=0;entryX=1;entryY=0.5;entryDx=0;entryDy=0;dashed=1;" parent="WIyWlLk6GJQsqaUBKTNV-1" source="n6h9AmYjATDsL7nFFByY-27" target="n6h9AmYjATDsL7nFFByY-21" edge="1">
          <mxGeometry width="160" relative="1" as="geometry">
            <mxPoint x="370" y="420" as="sourcePoint" />
            <mxPoint x="530" y="420" as="targetPoint" />
          </mxGeometry>
        </mxCell>
        <mxCell id="n6h9AmYjATDsL7nFFByY-54" value="" style="endArrow=open;endFill=1;endSize=12;html=1;rounded=0;exitX=0.5;exitY=0.5;exitDx=0;exitDy=0;exitPerimeter=0;entryX=0;entryY=0.5;entryDx=0;entryDy=0;" parent="WIyWlLk6GJQsqaUBKTNV-1" source="n6h9AmYjATDsL7nFFByY-36" target="n6h9AmYjATDsL7nFFByY-21" edge="1">
          <mxGeometry width="160" relative="1" as="geometry">
            <mxPoint x="370" y="420" as="sourcePoint" />
            <mxPoint x="530" y="420" as="targetPoint" />
          </mxGeometry>
        </mxCell>
        <mxCell id="n6h9AmYjATDsL7nFFByY-55" value="" style="endArrow=open;endFill=1;endSize=12;html=1;rounded=0;exitX=0.5;exitY=0.5;exitDx=0;exitDy=0;exitPerimeter=0;" parent="WIyWlLk6GJQsqaUBKTNV-1" source="n6h9AmYjATDsL7nFFByY-36" target="n6h9AmYjATDsL7nFFByY-28" edge="1">
          <mxGeometry width="160" relative="1" as="geometry">
            <mxPoint x="370" y="420" as="sourcePoint" />
            <mxPoint x="338.5580785627087" y="500.51244142397377" as="targetPoint" />
          </mxGeometry>
        </mxCell>
        <mxCell id="n6h9AmYjATDsL7nFFByY-57" value="" style="endArrow=open;endFill=1;endSize=12;html=1;rounded=0;exitX=0.5;exitY=0.5;exitDx=0;exitDy=0;exitPerimeter=0;entryX=0;entryY=0.714;entryDx=0;entryDy=0;entryPerimeter=0;" parent="WIyWlLk6GJQsqaUBKTNV-1" source="n6h9AmYjATDsL7nFFByY-0" target="n6h9AmYjATDsL7nFFByY-21" edge="1">
          <mxGeometry width="160" relative="1" as="geometry">
            <mxPoint x="370" y="420" as="sourcePoint" />
            <mxPoint x="530" y="420" as="targetPoint" />
          </mxGeometry>
        </mxCell>
        <mxCell id="n6h9AmYjATDsL7nFFByY-58" value="" style="endArrow=open;endFill=1;endSize=12;html=1;rounded=0;exitX=0.5;exitY=0.5;exitDx=0;exitDy=0;exitPerimeter=0;entryX=0;entryY=0.5;entryDx=0;entryDy=0;" parent="WIyWlLk6GJQsqaUBKTNV-1" source="n6h9AmYjATDsL7nFFByY-0" target="n6h9AmYjATDsL7nFFByY-28" edge="1">
          <mxGeometry width="160" relative="1" as="geometry">
            <mxPoint x="370" y="420" as="sourcePoint" />
            <mxPoint x="336.6775672840274" y="501.5912090649267" as="targetPoint" />
          </mxGeometry>
        </mxCell>
        <mxCell id="n6h9AmYjATDsL7nFFByY-60" value="" style="endArrow=open;endFill=1;endSize=12;html=1;rounded=0;exitX=0.5;exitY=0.5;exitDx=0;exitDy=0;exitPerimeter=0;entryX=0;entryY=1;entryDx=0;entryDy=0;" parent="WIyWlLk6GJQsqaUBKTNV-1" source="n6h9AmYjATDsL7nFFByY-8" target="n6h9AmYjATDsL7nFFByY-21" edge="1">
          <mxGeometry width="160" relative="1" as="geometry">
            <mxPoint x="370" y="420" as="sourcePoint" />
            <mxPoint x="530" y="420" as="targetPoint" />
          </mxGeometry>
        </mxCell>
        <mxCell id="n6h9AmYjATDsL7nFFByY-61" value="" style="endArrow=open;endFill=1;endSize=12;html=1;rounded=0;entryX=0.092;entryY=0.788;entryDx=0;entryDy=0;entryPerimeter=0;" parent="WIyWlLk6GJQsqaUBKTNV-1" source="n6h9AmYjATDsL7nFFByY-8" target="n6h9AmYjATDsL7nFFByY-28" edge="1">
          <mxGeometry width="160" relative="1" as="geometry">
            <mxPoint x="90" y="530" as="sourcePoint" />
            <mxPoint x="320.0214626398904" y="525.899356918479" as="targetPoint" />
          </mxGeometry>
        </mxCell>
        <mxCell id="n6h9AmYjATDsL7nFFByY-63" value="" style="endArrow=open;endFill=1;endSize=12;html=1;rounded=0;exitX=0.5;exitY=0.5;exitDx=0;exitDy=0;exitPerimeter=0;entryX=0.046;entryY=0.214;entryDx=0;entryDy=0;entryPerimeter=0;" parent="WIyWlLk6GJQsqaUBKTNV-1" source="n6h9AmYjATDsL7nFFByY-36" target="n6h9AmYjATDsL7nFFByY-34" edge="1">
          <mxGeometry width="160" relative="1" as="geometry">
            <mxPoint x="370" y="420" as="sourcePoint" />
            <mxPoint x="530" y="420" as="targetPoint" />
          </mxGeometry>
        </mxCell>
        <mxCell id="n6h9AmYjATDsL7nFFByY-64" value="" style="endArrow=open;endFill=1;endSize=12;html=1;rounded=0;entryX=0;entryY=0.5;entryDx=0;entryDy=0;exitX=0.5;exitY=0.5;exitDx=0;exitDy=0;exitPerimeter=0;" parent="WIyWlLk6GJQsqaUBKTNV-1" source="n6h9AmYjATDsL7nFFByY-0" target="n6h9AmYjATDsL7nFFByY-34" edge="1">
          <mxGeometry width="160" relative="1" as="geometry">
            <mxPoint x="85" y="360" as="sourcePoint" />
            <mxPoint x="530" y="420" as="targetPoint" />
          </mxGeometry>
        </mxCell>
        <mxCell id="n6h9AmYjATDsL7nFFByY-65" value="" style="endArrow=open;endFill=1;endSize=12;html=1;rounded=0;exitX=0.5;exitY=0.5;exitDx=0;exitDy=0;exitPerimeter=0;" parent="WIyWlLk6GJQsqaUBKTNV-1" source="n6h9AmYjATDsL7nFFByY-8" target="n6h9AmYjATDsL7nFFByY-34" edge="1">
          <mxGeometry width="160" relative="1" as="geometry">
            <mxPoint x="370" y="420" as="sourcePoint" />
            <mxPoint x="270" y="620" as="targetPoint" />
          </mxGeometry>
        </mxCell>
        <mxCell id="n6h9AmYjATDsL7nFFByY-66" value="&amp;lt;&amp;lt;Extends&amp;gt;&amp;gt;" style="endArrow=open;endSize=16;endFill=0;html=1;rounded=0;dashed=1;exitX=1;exitY=1;exitDx=0;exitDy=0;" parent="WIyWlLk6GJQsqaUBKTNV-1" source="n6h9AmYjATDsL7nFFByY-34" target="n6h9AmYjATDsL7nFFByY-27" edge="1">
          <mxGeometry width="160" relative="1" as="geometry">
            <mxPoint x="370" y="420" as="sourcePoint" />
            <mxPoint x="530" y="420" as="targetPoint" />
          </mxGeometry>
        </mxCell>
        <mxCell id="n6h9AmYjATDsL7nFFByY-67" value="&amp;lt;&amp;lt;Iinclude&amp;gt;&amp;gt;" style="endArrow=open;endSize=16;endFill=0;html=1;rounded=0;dashed=1;" parent="WIyWlLk6GJQsqaUBKTNV-1" source="n6h9AmYjATDsL7nFFByY-34" target="n6h9AmYjATDsL7nFFByY-21" edge="1">
          <mxGeometry width="160" relative="1" as="geometry">
            <mxPoint x="404.91870674094025" y="270.4636865171649" as="sourcePoint" />
            <mxPoint x="345" y="380" as="targetPoint" />
          </mxGeometry>
        </mxCell>
        <mxCell id="n6h9AmYjATDsL7nFFByY-75" value="System" style="text;html=1;strokeColor=none;fillColor=none;align=center;verticalAlign=middle;whiteSpace=wrap;rounded=0;" parent="WIyWlLk6GJQsqaUBKTNV-1" vertex="1">
          <mxGeometry x="750" y="50" width="50" height="40" as="geometry" />
        </mxCell>
      </root>
    </mxGraphModel>
  </diagram>
</mxfile>
